<?xml version="1.0" ?><!DOCTYPE svg  PUBLIC '-//W3C//DTD SVG 1.1//EN'  'http://www.w3.org/Graphics/SVG/1.1/DTD/svg11.dtd'><svg enable-background="new 0 0 128 128" height="128px" id="Layer_1" version="1.1" viewBox="0 0 128 128" width="128px" xml:space="preserve" xmlns="http://www.w3.org/2000/svg" xmlns:xlink="http://www.w3.org/1999/xlink"><path d="M106,24c3.3,0,6,2.7,6,6v60c0,3.3-2.7,6-6,6H95h-4v4v6.9l-13-10L77,96h-1.4H23c-3.3,0-6-2.7-6-6V30  c0-3.3,2.7-6,6-6H106 M106,20H23c-5.5,0-10,4.5-10,10v60c0,5.5,4.5,10,10,10h52.6L95,115v-15h11c5.5,0,10-4.5,10-10V30  C116,24.5,111.5,20,106,20L106,20z" fill="#3B97D3"/><path d="M71.4,61.1c-4.3,3.2-4.5,4.4-4.5,6.1V69h-6.4c0,0-1.9-2-1.9-5.5c0-1.6,1.1-3.1,4.3-5.6c4.4-3.5,5-4.4,5-6.7  c0-2-1.1-3.5-5.1-3.5s-8.6,1-8.6,1l-0.4-6.1c0,0,5.2-2.1,10.2-2.1c8.6,0,12.3,2.9,12.3,9.8C76.3,55.8,75.5,57.9,71.4,61.1z   M59.1,72.3h8.6V82h-8.6V72.3z" fill="#2C3E50"/></svg>